<svg id="Layer_1" data-name="Layer 1" xmlns="http://www.w3.org/2000/svg" xmlns:xlink="http://www.w3.org/1999/xlink" viewBox="0 0 818.16 194.55"><defs><style>.cls-1,.cls-4,.cls-7{fill:#fff;}.cls-1,.cls-2,.cls-3,.cls-5,.cls-6{fill-rule:evenodd;}.cls-2{fill:url(#linear-gradient);}.cls-3{fill:url(#linear-gradient-2);}.cls-5{fill:url(#linear-gradient-3);}.cls-6{fill:url(#linear-gradient-4);}.cls-7{font-size:63.49px;font-family:Poppins-Medium, Poppins;font-weight:500;}</style><linearGradient id="linear-gradient" x1="210.28" y1="97.28" x2="786.24" y2="97.28" gradientUnits="userSpaceOnUse"><stop offset="0" stop-color="#45b649"/><stop offset="1" stop-color="#0e9948"/></linearGradient><linearGradient id="linear-gradient-2" x1="243.33" y1="97.28" x2="272.75" y2="97.28" xlink:href="#linear-gradient"/><linearGradient id="linear-gradient-3" x1="70.78" y1="98.19" x2="163.37" y2="98.19" xlink:href="#linear-gradient"/><linearGradient id="linear-gradient-4" x1="95.95" y1="97.4" x2="141.04" y2="97.4" xlink:href="#linear-gradient"/></defs><polygon class="cls-1" points="683.03 188.21 707.14 188.21 812.16 6.34 788.06 6.34 683.03 188.21"/><polygon class="cls-2" points="210.28 188.21 681.21 188.21 786.24 6.34 210.28 6.34 210.28 188.21"/><path class="cls-1" d="M100.18,6.34h97.5v61h56.55a30.08,30.08,0,0,1,30,30h0a30,30,0,0,1-30,29.91H197.68v61h-97.5c-50,0-91-40.87-91-90.89h0c0-50,41-91,91-91Z"/><path class="cls-3" d="M272.75,97.28A14.71,14.71,0,1,1,258,82.57,14.71,14.71,0,0,1,272.75,97.28Z"/><path class="cls-4" d="M315.47,124a1.77,1.77,0,0,1-.83-1.46,1.65,1.65,0,0,1,.05-.38,1.07,1.07,0,0,1,.14-.36l23.61-49A1.38,1.38,0,0,1,339,72a1.58,1.58,0,0,1,.9-.24,2.75,2.75,0,0,1,1.63.58,1.77,1.77,0,0,1,.82,1.48,1.31,1.31,0,0,1,0,.34.82.82,0,0,1-.12.34l-23.46,48.89a2.62,2.62,0,0,1-.62.84,1.47,1.47,0,0,1-1,.31A2.83,2.83,0,0,1,315.47,124Z"/><path class="cls-5" d="M70.78,144.87c.13-.5.24-.84.34-1.13,2.47-7.49,5-14.91,7.51-22.39a1.89,1.89,0,0,0-.19-1.76,45.47,45.47,0,0,1,31.34-67.3c15.74-2.71,29.43,1.79,40.71,13.08a43.86,43.86,0,0,1,12.63,26.89,45.39,45.39,0,0,1-23.48,44.66,44.14,44.14,0,0,1-19.25,5.46,45.28,45.28,0,0,1-23.48-5,2,2,0,0,0-1.88-.17c-7.7,2.51-15.46,4.93-23.19,7.42A10.55,10.55,0,0,1,70.78,144.87Zm11.77-11.64c.67-.19,1-.28,1.37-.36,4-1.32,8-2.65,12.07-3.93a2.22,2.22,0,0,1,1.78.16,36.77,36.77,0,0,0,24.71,5.52,35.35,35.35,0,0,0,21-9.64c10-9.36,14-21,11.76-34.6A37.3,37.3,0,0,0,138.3,65.07a37.74,37.74,0,0,0-18.52-6,36,36,0,0,0-22.47,6.14C86.05,72.75,80.22,83.39,79.94,96.93a36.39,36.39,0,0,0,6.6,21.41,2.1,2.1,0,0,1,.31,2.24c-1,2.82-1.93,5.63-2.91,8.49C83.51,130.39,83.1,131.65,82.55,133.23Z"/><path class="cls-6" d="M96,87a12.54,12.54,0,0,1,4.17-9.34,4.65,4.65,0,0,1,3.27-1.23c3.28-.09,3.28-.09,4.58,3,1,2.39,2,4.83,3,7.22a2.12,2.12,0,0,1,0,2.19,43.87,43.87,0,0,1-2.69,3.5A1.89,1.89,0,0,0,108,95a29.94,29.94,0,0,0,15,12.88,1.66,1.66,0,0,0,2.16-.47c1.1-1.35,2.23-2.67,3.27-4,.86-1.13,1.29-1.37,2.49-.87,3.13,1.46,6.2,2.94,9.25,4.45.91.41.82,1.24.82,2-.25,4.84-2.43,7.29-8,9-2.81.91-5.48.08-8.19-.69-10.18-2.88-17.75-9.1-23.6-17.69-2-2.84-3.92-5.7-4.73-9.14C96.26,89.29,96.14,88.16,96,87Z"/><text class="cls-7" transform="translate(347.23 118.36)">Whatsapp</text></svg>